<svg width="69" height="69" viewBox="0 0 69 69" fill="none" xmlns="http://www.w3.org/2000/svg">
  <path d="M69 34.5C69 42.9343 65.9941 50.606 60.9694 56.6177C54.6437 64.1996 45.1326 69 34.4551 69C24.2263 69 15.0741 64.5585 8.74837 57.515C3.3199 51.4135 0 43.3381 0 34.5C0 15.433 15.433 0 34.5 0C53.567 0 69 15.433 69 34.5Z" fill="#EAEEF9"/>
  <path d="M68 34.5C68 42.6899 65.0813 50.1391 60.2022 55.9766C54.0598 63.3387 44.8244 68 34.4564 68C24.5241 68 15.6372 63.6873 9.4948 56.8479C4.22367 50.9233 1 43.0819 1 34.5C1 15.9857 15.9857 1 34.5 1C53.0143 1 68 15.9857 68 34.5Z" fill="#EAEEF9"/>
  <path d="M60.2959 55.7043C54.1839 63.0301 44.9942 67.6682 34.6775 67.6682C24.7943 67.6682 15.9514 63.3768 9.83936 56.5713C10.8797 55.7477 12.1801 55.0108 13.784 54.3605L14.9977 53.8837C17.2951 52.9734 20.2861 51.8464 24.3174 50.1558C25.2277 49.7657 25.9646 49.0721 26.3548 48.1618C26.5715 47.685 26.7016 47.1215 26.7016 46.558V39.0589C26.5715 38.8855 26.4415 38.7554 26.3548 38.582C25.7046 37.6284 25.2711 36.5014 25.141 35.2876L24.4908 34.9842C22.5402 35.461 22.6702 33.3803 22.1934 29.3924C21.9767 27.7451 22.2368 27.3984 22.9737 27.1383L23.5805 26.3147C19.8526 17.8619 21.7166 12.5735 25.4011 10.7096C24.1874 8.02201 24.1007 7.06836 24.1007 7.06836C24.1007 7.06836 31.9466 8.36879 34.6775 7.84862C38.102 7.15505 43.3904 7.97866 45.341 12.5302C48.5921 13.8306 49.8925 15.8679 50.1526 18.122C50.6294 21.6765 48.5921 25.5778 48.2019 27.0949C48.2453 27.1816 48.2886 27.225 48.2886 27.2683C48.8088 27.5284 48.9822 27.9619 48.8088 29.3924C48.332 33.1636 48.462 35.5044 46.5114 34.9842L44.7775 38.0185C44.6908 38.3653 44.6908 38.4953 44.6474 38.7554C44.5608 39.3189 44.6041 40.446 44.6041 46.6447C44.6041 47.3816 44.8208 48.0751 45.211 48.7254C45.6444 49.3756 46.2513 49.9391 47.0316 50.2425C47.0316 50.2425 47.0749 50.2425 47.1183 50.2859C51.5831 52.1498 54.7908 53.3636 57.1315 54.2738C58.3453 54.664 59.3856 55.1841 60.2959 55.7043Z" fill="white"/>
  <path d="M48.2887 27.0516C48.4621 26.0979 48.0286 24.9276 47.6818 24.104C47.6385 23.9739 47.5518 23.8439 47.5084 23.6705C45.9912 20.6361 42.6535 19.4224 39.4458 19.249C31.2531 18.8155 30.5162 20.3761 27.9587 18.0353C28.7389 19.249 28.8256 21.113 27.6119 23.4537C26.7449 25.1009 25.0977 25.8379 23.6673 26.3147C19.9394 17.8619 21.8033 12.5735 25.4879 10.7096C24.2741 8.02201 24.1874 7.06836 24.1874 7.06836C24.1874 7.06836 32.0333 8.36879 34.7209 7.84862C38.1453 7.15505 43.4337 7.97866 45.3844 12.5302C48.6354 13.8306 49.8925 15.8679 50.196 18.122C50.6728 21.6331 48.6788 25.4911 48.2887 27.0516Z" fill="url(#paint0_linear_58713_16501)"/>
  <path d="M45.2974 48.6385V50.1124H26.3545V48.2051C26.5712 47.7283 26.7013 47.1647 26.7013 46.6012V39.0587C26.5712 38.8853 26.4412 38.7553 26.3545 38.5819V38.1484C26.7446 38.842 27.2648 39.4922 27.915 40.0124L33.8536 44.1304C35.2407 45.3008 37.2347 45.3441 38.6652 44.2171L44.2137 39.2321C44.3871 39.0587 44.6038 38.8853 44.7772 38.712C44.6905 39.2755 44.7339 40.4025 44.7339 46.6012C44.6905 47.3381 44.9072 48.075 45.2974 48.6385Z" fill="url(#paint1_linear_58713_16501)"/>
  <defs>
    <linearGradient id="paint0_linear_58713_16501" x1="21.6197" y1="17.0621" x2="50.2744" y2="17.0621" gradientUnits="userSpaceOnUse">
      <stop stop-color="#B0BACC"/>
      <stop offset="1" stop-color="#969EAE"/>
    </linearGradient>
    <linearGradient id="paint1_linear_58713_16501" x1="35.8317" y1="50.1852" x2="35.8317" y2="43.5943" gradientUnits="userSpaceOnUse">
      <stop stop-color="white"/>
      <stop offset="1" stop-color="#E2E5EC"/>
    </linearGradient>
  </defs>
</svg>