<svg width="16" height="16" viewBox="0 0 16 16" fill="none" xmlns="http://www.w3.org/2000/svg">
<path d="M1.49514 4.56945L7.65959 0.872286C7.87072 0.745653 8.13452 0.7457 8.34559 0.872406L14.5048 4.56944C14.6052 4.62969 14.6666 4.73817 14.6666 4.85524V13.3332C14.6666 13.7014 14.3681 13.9999 13.9999 13.9999H1.99992C1.63173 13.9999 1.33325 13.7014 1.33325 13.3332V4.85532C1.33325 4.73821 1.39471 4.62969 1.49514 4.56945ZM2.66659 5.42163V12.6666H13.3333V5.42131L8.00239 2.22147L2.66659 5.42163ZM8.03972 9.13209L11.5703 6.15677L12.4295 7.17635L8.04925 10.8677L3.57593 7.18102L4.42391 6.15209L8.03972 9.13209Z" fill="#8E8E8F"/>
</svg>
